<svg width="1200" height="760" viewBox="0 0 1200 760" fill="none" xmlns="http://www.w3.org/2000/svg">
  <defs>
    <linearGradient id="bg" x1="0" y1="0" x2="1200" y2="760" gradientUnits="userSpaceOnUse">
      <stop stop-color="#0E7490"/>
      <stop offset="1" stop-color="#0B3B4D"/>
    </linearGradient>
    <linearGradient id="road" x1="0" y1="0" x2="0" y2="1">
      <stop stop-color="#1F2937"/>
      <stop offset="1" stop-color="#0F172A"/>
    </linearGradient>
    <linearGradient id="card" x1="0" y1="0" x2="1" y2="1">
      <stop stop-color="#F8FAFC" stop-opacity="0.98"/>
      <stop offset="1" stop-color="#E2E8F0" stop-opacity="0.98"/>
    </linearGradient>
    <linearGradient id="vest" x1="0" y1="0" x2="1" y2="1">
      <stop stop-color="#F59E0B"/>
      <stop offset="1" stop-color="#D97706"/>
    </linearGradient>
  </defs>

  <rect width="1200" height="760" rx="28" fill="url(#bg)"/>

  <circle cx="160" cy="130" r="170" fill="#22C55E" fill-opacity="0.16"/>
  <circle cx="1050" cy="120" r="150" fill="#F59E0B" fill-opacity="0.16"/>

  <g opacity="0.35" stroke="#E2E8F0" stroke-width="2">
    <line x1="100" y1="230" x2="1100" y2="230"/>
    <line x1="100" y1="290" x2="1100" y2="290"/>
    <line x1="100" y1="350" x2="1100" y2="350"/>
  </g>

  <rect x="70" y="430" width="1060" height="250" rx="28" fill="url(#road)" fill-opacity="0.86"/>
  <g opacity="0.5" stroke="#F8FAFC" stroke-width="8" stroke-linecap="round">
    <line x1="130" y1="555" x2="230" y2="555"/>
    <line x1="290" y1="555" x2="390" y2="555"/>
    <line x1="450" y1="555" x2="550" y2="555"/>
    <line x1="610" y1="555" x2="710" y2="555"/>
    <line x1="770" y1="555" x2="870" y2="555"/>
    <line x1="930" y1="555" x2="1030" y2="555"/>
  </g>

  <g>
    <rect x="140" y="170" width="230" height="170" rx="16" fill="#E2E8F0" fill-opacity="0.82"/>
    <rect x="170" y="200" width="60" height="60" rx="8" fill="#94A3B8"/>
    <rect x="250" y="200" width="90" height="20" rx="10" fill="#64748B"/>
    <rect x="250" y="232" width="74" height="12" rx="6" fill="#94A3B8"/>
    <rect x="170" y="278" width="170" height="34" rx="10" fill="#0E7490"/>
  </g>

  <g>
    <rect x="830" y="150" width="250" height="190" rx="16" fill="#E2E8F0" fill-opacity="0.82"/>
    <circle cx="910" cy="215" r="26" fill="#F59E0B"/>
    <rect x="948" y="196" width="105" height="16" rx="8" fill="#64748B"/>
    <rect x="948" y="220" width="85" height="12" rx="6" fill="#94A3B8"/>
    <rect x="864" y="270" width="190" height="40" rx="10" fill="#16A34A"/>
  </g>

  <g transform="translate(420 300)">
    <ellipse cx="140" cy="260" rx="110" ry="18" fill="#020617" fill-opacity="0.3"/>

    <g transform="translate(0 20)">
      <circle cx="70" cy="70" r="32" fill="#F8D4B4"/>
      <rect x="40" y="110" width="60" height="90" rx="16" fill="#1D4ED8"/>
      <rect x="28" y="136" width="22" height="64" rx="11" fill="#F8D4B4"/>
      <rect x="92" y="136" width="22" height="64" rx="11" fill="#F8D4B4"/>
      <rect x="44" y="194" width="20" height="62" rx="9" fill="#334155"/>
      <rect x="76" y="194" width="20" height="62" rx="9" fill="#334155"/>
      <rect x="46" y="58" width="48" height="14" rx="7" fill="#0F172A"/>
    </g>

    <g transform="translate(110 0)">
      <circle cx="96" cy="66" r="34" fill="#F3C6A5"/>
      <rect x="58" y="106" width="78" height="94" rx="16" fill="url(#vest)"/>
      <rect x="50" y="142" width="18" height="54" rx="9" fill="#F3C6A5"/>
      <rect x="126" y="142" width="18" height="54" rx="9" fill="#F3C6A5"/>
      <rect x="66" y="196" width="24" height="62" rx="10" fill="#1E293B"/>
      <rect x="104" y="196" width="24" height="62" rx="10" fill="#1E293B"/>
      <rect x="68" y="132" width="58" height="10" rx="5" fill="#FEF3C7"/>
    </g>

    <rect x="92" y="92" width="86" height="62" rx="10" fill="url(#card)" stroke="#94A3B8" stroke-width="3"/>
    <rect x="104" y="106" width="62" height="8" rx="4" fill="#0E7490"/>
    <rect x="104" y="120" width="48" height="6" rx="3" fill="#64748B"/>
    <rect x="104" y="132" width="56" height="6" rx="3" fill="#94A3B8"/>
  </g>

  <g opacity="0.85">
    <circle cx="520" cy="500" r="9" fill="#16A34A"/>
    <circle cx="620" cy="540" r="9" fill="#F59E0B"/>
    <circle cx="700" cy="500" r="9" fill="#38BDF8"/>
  </g>
</svg>
