<svg width="1200" height="800" viewBox="0 0 1200 800" xmlns="http://www.w3.org/2000/svg" role="img" aria-label="Civic operations and map illustration">
  <defs>
    <linearGradient id="bg2" x1="0" y1="0" x2="1" y2="1">
      <stop offset="0%" stop-color="#115e59"/>
      <stop offset="100%" stop-color="#0c4a6e"/>
    </linearGradient>
  </defs>

  <rect width="1200" height="800" fill="url(#bg2)"/>

  <rect x="80" y="110" width="1040" height="580" rx="30" fill="#e2e8f0" opacity="0.12"/>
  <rect x="120" y="150" width="650" height="500" rx="24" fill="#f8fafc" opacity="0.94"/>
  <rect x="800" y="150" width="280" height="500" rx="24" fill="#f8fafc" opacity="0.95"/>

  <g stroke="#94a3b8" stroke-width="2" opacity="0.5">
    <line x1="150" y1="210" x2="740" y2="210"/>
    <line x1="150" y1="280" x2="740" y2="280"/>
    <line x1="150" y1="350" x2="740" y2="350"/>
    <line x1="150" y1="420" x2="740" y2="420"/>
    <line x1="150" y1="490" x2="740" y2="490"/>
    <line x1="150" y1="560" x2="740" y2="560"/>
    <line x1="210" y1="180" x2="210" y2="620"/>
    <line x1="300" y1="180" x2="300" y2="620"/>
    <line x1="390" y1="180" x2="390" y2="620"/>
    <line x1="480" y1="180" x2="480" y2="620"/>
    <line x1="570" y1="180" x2="570" y2="620"/>
    <line x1="660" y1="180" x2="660" y2="620"/>
  </g>

  <g>
    <circle cx="240" cy="270" r="28" fill="#ef4444"/>
    <circle cx="430" cy="405" r="24" fill="#f59e0b"/>
    <circle cx="560" cy="320" r="26" fill="#22c55e"/>
    <circle cx="660" cy="500" r="30" fill="#0ea5e9"/>
    <circle cx="320" cy="520" r="20" fill="#f97316"/>
  </g>

  <g font-family="Manrope, sans-serif" fill="#0f172a">
    <text x="830" y="200" font-size="22" font-weight="800">Civic Ops Feed</text>
    <text x="830" y="238" font-size="14" opacity="0.8">Open Complaints • Escalations • Zones</text>

    <rect x="830" y="265" width="220" height="76" rx="12" fill="#dbeafe"/>
    <text x="845" y="294" font-size="16" font-weight="700">Road Defects</text>
    <text x="845" y="318" font-size="13">Cluster concentration high</text>

    <rect x="830" y="360" width="220" height="76" rx="12" fill="#dcfce7"/>
    <text x="845" y="389" font-size="16" font-weight="700">Water Logging</text>
    <text x="845" y="413" font-size="13">Drainage action pending</text>

    <rect x="830" y="455" width="220" height="76" rx="12" fill="#fef3c7"/>
    <text x="845" y="484" font-size="16" font-weight="700">Streetlights</text>
    <text x="845" y="508" font-size="13">Night safety impact</text>

    <text x="830" y="575" font-size="13" opacity="0.7">Pune Geo Coverage Active</text>
  </g>
</svg>
