<svg width="1200" height="760" viewBox="0 0 1200 760" fill="none" xmlns="http://www.w3.org/2000/svg">
  <defs>
    <linearGradient id="sky" x1="0" y1="0" x2="1200" y2="760" gradientUnits="userSpaceOnUse">
      <stop stop-color="#0F766E"/>
      <stop offset="0.55" stop-color="#0E7490"/>
      <stop offset="1" stop-color="#0B3B4D"/>
    </linearGradient>
    <linearGradient id="ground" x1="0" y1="0" x2="0" y2="1">
      <stop stop-color="#0F172A"/>
      <stop offset="1" stop-color="#111827"/>
    </linearGradient>
    <linearGradient id="panel" x1="0" y1="0" x2="1" y2="1">
      <stop stop-color="#F8FAFC" stop-opacity="0.98"/>
      <stop offset="1" stop-color="#E2E8F0" stop-opacity="0.98"/>
    </linearGradient>
    <linearGradient id="vest" x1="0" y1="0" x2="1" y2="1">
      <stop stop-color="#F59E0B"/>
      <stop offset="1" stop-color="#EA580C"/>
    </linearGradient>
  </defs>

  <rect width="1200" height="760" rx="28" fill="url(#sky)"/>

  <circle cx="120" cy="120" r="170" fill="#22C55E" fill-opacity="0.14"/>
  <circle cx="1080" cy="120" r="170" fill="#F59E0B" fill-opacity="0.14"/>

  <g opacity="0.88">
    <rect x="80" y="240" width="92" height="170" rx="10" fill="#E2E8F0" fill-opacity="0.18"/>
    <rect x="186" y="210" width="120" height="200" rx="10" fill="#E2E8F0" fill-opacity="0.2"/>
    <rect x="322" y="170" width="108" height="240" rx="10" fill="#E2E8F0" fill-opacity="0.2"/>
    <rect x="444" y="230" width="96" height="180" rx="10" fill="#E2E8F0" fill-opacity="0.16"/>
    <rect x="1040" y="220" width="84" height="190" rx="10" fill="#E2E8F0" fill-opacity="0.2"/>
    <rect x="920" y="180" width="106" height="230" rx="10" fill="#E2E8F0" fill-opacity="0.18"/>
    <rect x="790" y="210" width="116" height="200" rx="10" fill="#E2E8F0" fill-opacity="0.2"/>
  </g>

  <rect x="0" y="460" width="1200" height="300" fill="url(#ground)" fill-opacity="0.9"/>

  <g opacity="0.45" stroke="#F8FAFC" stroke-width="7" stroke-linecap="round">
    <line x1="70" y1="606" x2="180" y2="606"/>
    <line x1="240" y1="606" x2="350" y2="606"/>
    <line x1="410" y1="606" x2="520" y2="606"/>
    <line x1="580" y1="606" x2="690" y2="606"/>
    <line x1="750" y1="606" x2="860" y2="606"/>
    <line x1="920" y1="606" x2="1030" y2="606"/>
  </g>

  <g>
    <path d="M584 178C584 140 614 110 652 110C690 110 720 140 720 178C720 235 652 294 652 294C652 294 584 235 584 178Z" fill="#F43F5E"/>
    <circle cx="652" cy="176" r="27" fill="#FCE7F3"/>
    <circle cx="652" cy="176" r="13" fill="#F43F5E"/>
  </g>

  <g transform="translate(432 324)">
    <ellipse cx="160" cy="286" rx="154" ry="20" fill="#020617" fill-opacity="0.34"/>

    <g transform="translate(0 24)">
      <circle cx="78" cy="70" r="32" fill="#F6CFB2"/>
      <rect x="46" y="110" width="64" height="94" rx="16" fill="#2563EB"/>
      <rect x="30" y="138" width="20" height="58" rx="10" fill="#F6CFB2"/>
      <rect x="106" y="138" width="20" height="58" rx="10" fill="#F6CFB2"/>
      <rect x="52" y="198" width="22" height="66" rx="10" fill="#334155"/>
      <rect x="82" y="198" width="22" height="66" rx="10" fill="#334155"/>
      <rect x="55" y="58" width="46" height="14" rx="7" fill="#0F172A"/>
    </g>

    <g transform="translate(132 0)">
      <circle cx="98" cy="66" r="34" fill="#F1C2A2"/>
      <rect x="58" y="108" width="80" height="96" rx="16" fill="url(#vest)"/>
      <rect x="50" y="142" width="18" height="54" rx="9" fill="#F1C2A2"/>
      <rect x="128" y="142" width="18" height="54" rx="9" fill="#F1C2A2"/>
      <rect x="67" y="198" width="24" height="66" rx="10" fill="#1E293B"/>
      <rect x="105" y="198" width="24" height="66" rx="10" fill="#1E293B"/>
      <rect x="70" y="134" width="56" height="9" rx="5" fill="#FEF3C7"/>
    </g>

    <rect x="110" y="102" width="94" height="66" rx="11" fill="url(#panel)" stroke="#94A3B8" stroke-width="3"/>
    <rect x="124" y="118" width="64" height="8" rx="4" fill="#0E7490"/>
    <rect x="124" y="132" width="52" height="6" rx="3" fill="#64748B"/>
    <rect x="124" y="144" width="58" height="6" rx="3" fill="#94A3B8"/>
  </g>

  <g>
    <rect x="128" y="494" width="248" height="112" rx="16" fill="#F8FAFC" fill-opacity="0.94"/>
    <rect x="152" y="522" width="64" height="56" rx="10" fill="#0EA5E9"/>
    <rect x="232" y="520" width="120" height="16" rx="8" fill="#334155"/>
    <rect x="232" y="544" width="88" height="10" rx="5" fill="#64748B"/>
    <rect x="232" y="562" width="96" height="10" rx="5" fill="#94A3B8"/>
  </g>

  <g>
    <rect x="824" y="492" width="250" height="118" rx="16" fill="#F8FAFC" fill-opacity="0.94"/>
    <circle cx="858" cy="528" r="12" fill="#22C55E"/>
    <circle cx="858" cy="560" r="12" fill="#F59E0B"/>
    <circle cx="858" cy="592" r="12" fill="#F43F5E"/>
    <rect x="880" y="520" width="160" height="16" rx="8" fill="#334155"/>
    <rect x="880" y="552" width="130" height="12" rx="6" fill="#64748B"/>
    <rect x="880" y="582" width="144" height="12" rx="6" fill="#94A3B8"/>
  </g>
</svg>
